<svg width="319" height="120" viewBox="0 0 319 120" xmlns="http://www.w3.org/2000/svg" xmlns:xlink="http://www.w3.org/1999/xlink"><defs><path id="a" d="M0 66.118h318.49V.188H0z"/><path d="M16.593 1.863L1.96 15.578a6.193 6.193 0 00-1.797 5.928l4.561 19.532a6.191 6.191 0 004.236 4.518l19.195 5.816a6.193 6.193 0 006.031-1.408l5.288-4.955-14.076-15.02a1.449 1.449 0 00-2.048-.065l-5.77 5.406a1.449 1.449 0 01-2.047-.066l-5.477-5.844a1.45 1.45 0 01.066-2.049l14.346-13.445a1.448 1.448 0 011.038-.391l11.321.367c1.29.041 1.887 1.623.944 2.506l-4.348 4.075a1.449 1.449 0 00-.066 2.05L47.431 37.55l1.39-1.301a6.197 6.197 0 001.795-5.929l-4.561-19.53a6.195 6.195 0 00-4.236-4.52L22.624.454a6.192 6.192 0 00-6.03 1.409" id="c"/><linearGradient x1="-12.574%" y1="109.421%" x2="114.095%" y2="-10.864%" id="d"><stop stop-color="#6050F2" offset="0%"/><stop stop-color="#7C8CF9" offset="100%"/></linearGradient></defs><g fill="none" fill-rule="evenodd"><g transform="translate(0 31.694)"><path d="M73.949 25.35h9.066c1.89 0 3.423-.554 4.595-1.665 1.171-1.11 1.757-2.65 1.757-4.625 0-2.055-.586-3.64-1.757-4.75-1.172-1.11-2.704-1.665-4.595-1.665h-9.066v12.706zm16.775 25.041l-8.973-16.59H74.01v16.59h-9.56V4.258h19.736c4.481 0 8.08 1.306 10.794 3.916 2.714 2.612 4.07 6.24 4.07 10.886 0 3.166-.647 5.87-1.942 8.11-1.295 2.241-3.116 3.938-5.46 5.089l9.808 18.132H90.724z" fill="#22283F"/><mask id="b" fill="#fff"><use xlink:href="#a"/></mask><path d="M105.402 50.391h9.004V18.504h-9.004v31.887zm4.502-47.737c1.52 0 2.806.524 3.854 1.573 1.05 1.048 1.573 2.333 1.573 3.854 0 1.48-.524 2.745-1.573 3.794-1.048 1.048-2.333 1.573-3.854 1.573-1.522 0-2.797-.525-3.824-1.573-1.028-1.05-1.542-2.313-1.542-3.794 0-1.48.534-2.754 1.604-3.823 1.068-1.07 2.321-1.604 3.762-1.604zm27.507 22.944c-2.262 0-4.082.73-5.459 2.189-1.378 1.46-2.066 3.444-2.066 5.951v1.48c0 2.51.688 4.494 2.066 5.953 1.377 1.46 3.197 2.189 5.46 2.189 2.3 0 4.162-.78 5.58-2.344 1.419-1.562 2.129-3.74 2.129-6.537 0-2.796-.71-4.975-2.129-6.538-1.418-1.562-3.28-2.343-5.58-2.343m1.417-7.71c4.564 0 8.274 1.522 11.132 4.564 2.858 3.043 4.287 7.052 4.287 12.027s-1.429 8.985-4.287 12.026c-2.858 3.044-6.568 4.565-11.132 4.565-3.907 0-6.887-1.131-8.943-3.392v18.44h-9.005V18.505h8.511v3.33c1.975-2.63 5.12-3.946 9.437-3.946m35.771 7.029c-1.932 0-3.484.567-4.656 1.697-1.171 1.131-1.82 2.704-1.943 4.719h12.828c-.082-2.015-.647-3.588-1.695-4.719-1.05-1.13-2.56-1.697-4.533-1.697zm15.296 12.398h-21.895c.082 2.015.71 3.599 1.88 4.748 1.174 1.152 2.766 1.727 4.78 1.727 3.209 0 5.162-1.17 5.86-3.515l9.067.431c-.576 3.045-2.23 5.531-4.965 7.464-2.734 1.932-5.973 2.899-9.714 2.899-4.934 0-8.912-1.5-11.934-4.503-3.022-3.001-4.533-7.03-4.533-12.088 0-5.098 1.5-9.138 4.502-12.119 3.002-2.98 6.908-4.472 11.718-4.472 4.647 0 8.347 1.409 11.102 4.224 2.754 2.818 4.132 6.692 4.132 11.627v3.577zM223.387 6.91c2.775 2.158 4.317 5.12 4.563 8.88l-3.639.248c-.493-5.736-4.934-9.128-11.533-9.128-7.463 0-11.596 3.823-11.596 9.19 0 2.528.988 4.502 2.16 5.672.616.557 1.541 1.111 2.774 1.666 1.296.494 2.345.864 3.27 1.11l4.132.988c5.737 1.296 9.807 2.774 12.274 4.44 2.466 1.666 3.7 4.38 3.7 8.142 0 4.255-1.48 7.462-4.503 9.621-3.02 2.16-6.845 3.207-11.533 3.207-4.749 0-8.757-1.11-11.904-3.33-3.145-2.282-4.872-5.366-5.18-9.375l3.701-.247c.308 2.96 1.665 5.305 4.131 7.093 2.53 1.788 5.613 2.652 9.252 2.652 7.401 0 12.336-3.145 12.336-9.375 0-2.528-1.049-4.503-2.282-5.674-.617-.556-1.605-1.11-3.022-1.666-1.358-.554-2.53-.924-3.578-1.171-1.048-.308-2.59-.678-4.687-1.173-2.035-.492-3.577-.924-4.75-1.232-1.171-.309-2.466-.802-3.947-1.481-4.07-1.973-5.735-4.44-6.044-9.745 0-3.638 1.295-6.599 3.885-8.943 2.653-2.406 6.416-3.577 11.349-3.577 4.379 0 7.895 1.049 10.67 3.208m17.886.492v39.843h13.754c5.428 0 9.806-1.727 13.199-5.242 3.392-3.515 5.119-8.388 5.119-14.679 0-6.29-1.666-11.162-5.058-14.68-3.33-3.515-7.71-5.242-13.137-5.242h-13.877zm-3.639-3.144h17.516c6.414 0 11.657 2.034 15.727 6.167 4.07 4.132 6.106 9.744 6.106 16.9 0 7.092-2.096 12.766-6.229 16.899-4.132 4.132-9.375 6.167-15.727 6.167h-17.393V4.258zm59.517 19.92l21.34 26.213h-4.564l-19.182-23.375-5.55 5.983v17.392h-3.639V4.257h3.64v23.375l21.771-23.375h4.687z" fill="#22283F" mask="url(#b)"/></g><g transform="translate(0 31.694)"><mask id="e" fill="#fff"><use xlink:href="#c"/></mask><path d="M16.593 1.863L1.96 15.578a6.193 6.193 0 00-1.797 5.928l4.561 19.532a6.191 6.191 0 004.236 4.518l19.195 5.816a6.193 6.193 0 006.031-1.408l5.288-4.955-14.076-15.02a1.449 1.449 0 00-2.048-.065l-5.77 5.406a1.449 1.449 0 01-2.047-.066l-5.477-5.844a1.45 1.45 0 01.066-2.049l14.346-13.445a1.448 1.448 0 011.038-.391l11.321.367c1.29.041 1.887 1.623.944 2.506l-4.348 4.075a1.449 1.449 0 00-.066 2.05L47.431 37.55l1.39-1.301a6.197 6.197 0 001.795-5.929l-4.561-19.53a6.195 6.195 0 00-4.236-4.52L22.624.454a6.192 6.192 0 00-6.03 1.409" fill="url(#d)" mask="url(#e)"/></g></g></svg>