<svg width="319" height="66" xmlns="http://www.w3.org/2000/svg" xmlns:xlink="http://www.w3.org/1999/xlink"><defs><path id="a" d="M0 66.118h318.36V.188H0z"/><path d="M16.586 1.863L1.958 15.578a6.195 6.195 0 00-1.796 5.928l4.56 19.532a6.19 6.19 0 004.233 4.518l19.187 5.816a6.189 6.189 0 006.029-1.408l5.285-4.955-14.07-15.02a1.448 1.448 0 00-2.047-.065l-5.767 5.406c-.583.548-1.5.518-2.047-.066l-5.474-5.844a1.451 1.451 0 01.065-2.049l14.341-13.445a1.447 1.447 0 011.037-.391l11.317.367c1.29.041 1.886 1.623.944 2.506l-4.346 4.075a1.45 1.45 0 00-.066 2.05L47.41 37.55l1.39-1.3a6.199 6.199 0 001.795-5.929l-4.56-19.531a6.194 6.194 0 00-4.233-4.52L22.615.454a6.188 6.188 0 00-6.028 1.409" id="c"/><linearGradient x1="-12.522%" y1="109.421%" x2="114.042%" y2="-10.864%" id="d"><stop stop-color="#6050F2" offset="0%"/><stop stop-color="#7C8CF9" offset="100%"/></linearGradient></defs><g fill="none" fill-rule="evenodd"><g transform="translate(0 -.306)"><path d="M73.918 25.35h9.063c1.89 0 3.421-.554 4.592-1.665 1.172-1.11 1.758-2.65 1.758-4.625 0-2.055-.586-3.64-1.758-4.75-1.17-1.11-2.702-1.665-4.592-1.665h-9.063v12.706zm16.769 25.041l-8.97-16.59H73.98v16.59h-9.555V4.258h19.728c4.479 0 8.076 1.306 10.788 3.916 2.714 2.612 4.07 6.24 4.07 10.886 0 3.166-.648 5.87-1.942 8.11-1.295 2.241-3.115 3.938-5.457 5.089l9.803 18.132H90.687z" fill="#22283F"/><mask id="b" fill="#fff"><use xlink:href="#a"/></mask><path d="M105.358 50.391h9V18.504h-9v31.887zm4.5-47.737c1.52 0 2.805.524 3.853 1.573 1.049 1.048 1.572 2.333 1.572 3.854 0 1.48-.523 2.745-1.572 3.794-1.048 1.048-2.332 1.573-3.853 1.573-1.52 0-2.796-.525-3.822-1.573-1.028-1.05-1.541-2.313-1.541-3.794 0-1.48.534-2.754 1.603-3.823 1.067-1.07 2.32-1.604 3.76-1.604zm27.496 22.944c-2.26 0-4.08.73-5.456 2.189-1.377 1.46-2.066 3.444-2.066 5.951v1.48c0 2.51.689 4.494 2.066 5.953 1.376 1.46 3.195 2.189 5.456 2.189 2.301 0 4.162-.78 5.58-2.344 1.417-1.562 2.127-3.74 2.127-6.537 0-2.796-.71-4.975-2.128-6.538-1.417-1.562-3.278-2.343-5.579-2.343m1.417-7.71c4.563 0 8.272 1.522 11.128 4.564 2.857 3.043 4.286 7.052 4.286 12.027s-1.429 8.985-4.286 12.026c-2.856 3.044-6.565 4.565-11.128 4.565-3.904 0-6.884-1.131-8.939-3.392v18.44h-9V18.505h8.507v3.33c1.974-2.63 5.117-3.946 9.432-3.946m35.758 7.029c-1.933 0-3.483.567-4.655 1.697-1.17 1.131-1.818 2.704-1.942 4.719h12.823c-.082-2.015-.647-3.588-1.695-4.719-1.048-1.13-2.559-1.697-4.531-1.697zm15.289 12.398h-21.886c.081 2.015.709 3.599 1.88 4.748 1.173 1.152 2.764 1.727 4.778 1.727 3.207 0 5.158-1.17 5.857-3.515l9.063.431c-.576 3.045-2.23 5.531-4.963 7.464-2.733 1.932-5.97 2.899-9.71 2.899-4.932 0-8.909-1.5-11.93-4.503-3.02-3.001-4.53-7.03-4.53-12.088 0-5.098 1.5-9.138 4.5-12.119 3-2.98 6.905-4.472 11.713-4.472 4.645 0 8.343 1.409 11.098 4.224 2.753 2.818 4.13 6.692 4.13 11.627v3.577zM223.294 6.91c2.775 2.158 4.316 5.12 4.563 8.88l-3.638.248c-.494-5.736-4.932-9.128-11.53-9.128-7.459 0-11.59 3.823-11.59 9.19 0 2.528.987 4.502 2.158 5.672.617.557 1.542 1.111 2.774 1.666 1.296.494 2.344.864 3.268 1.11l4.131.988c5.734 1.296 9.803 2.774 12.27 4.44 2.464 1.666 3.698 4.38 3.698 8.142 0 4.255-1.48 7.462-4.502 9.621-3.02 2.16-6.842 3.207-11.528 3.207-4.747 0-8.754-1.11-11.899-3.33-3.144-2.282-4.87-5.366-5.179-9.375l3.7-.247c.308 2.96 1.664 5.305 4.13 7.093 2.528 1.788 5.61 2.652 9.248 2.652 7.398 0 12.331-3.145 12.331-9.375 0-2.528-1.048-4.503-2.281-5.674-.617-.556-1.604-1.11-3.021-1.666-1.357-.554-2.528-.924-3.577-1.171-1.047-.308-2.589-.678-4.684-1.173-2.035-.492-3.576-.924-4.748-1.232-1.172-.309-2.466-.802-3.946-1.481-4.069-1.973-5.733-4.44-6.041-9.745 0-3.638 1.294-6.599 3.883-8.943 2.652-2.406 6.413-3.577 11.344-3.577 4.377 0 7.892 1.049 10.666 3.208m17.879.492v39.843h13.747c5.426 0 9.803-1.727 13.194-5.242 3.391-3.515 5.117-8.388 5.117-14.679 0-6.29-1.665-11.162-5.055-14.68-3.33-3.515-7.707-5.242-13.132-5.242h-13.871zm-3.638-3.144h17.509c6.412 0 11.652 2.034 15.72 6.167 4.07 4.132 6.104 9.744 6.104 16.9 0 7.092-2.095 12.766-6.227 16.899-4.13 4.132-9.37 6.167-15.72 6.167h-17.386V4.258zm59.492 19.92l21.332 26.213h-4.563l-19.173-23.375-5.548 5.983v17.392h-3.637V4.257h3.637v23.375l21.763-23.375h4.684z" fill="#22283F" mask="url(#b)"/></g><g transform="translate(0 -.306)"><mask id="e" fill="#fff"><use xlink:href="#c"/></mask><path d="M16.586 1.863L1.958 15.578a6.195 6.195 0 00-1.796 5.928l4.56 19.532a6.19 6.19 0 004.233 4.518l19.187 5.816a6.189 6.189 0 006.029-1.408l5.285-4.955-14.07-15.02a1.448 1.448 0 00-2.047-.065l-5.767 5.406c-.583.548-1.5.518-2.047-.066l-5.474-5.844a1.451 1.451 0 01.065-2.049l14.341-13.445a1.447 1.447 0 011.037-.391l11.317.367c1.29.041 1.886 1.623.944 2.506l-4.346 4.075a1.45 1.45 0 00-.066 2.05L47.41 37.55l1.39-1.3a6.199 6.199 0 001.795-5.929l-4.56-19.531a6.194 6.194 0 00-4.233-4.52L22.615.454a6.188 6.188 0 00-6.028 1.409" fill="url(#d)" mask="url(#e)"/></g></g></svg>