<?xml version="1.0" encoding="UTF-8"?>
<svg viewBox="0 0 258 135" xmlns="http://www.w3.org/2000/svg">
<defs>
<linearGradient id="a" x1="-12.529%" x2="88.258%" y1="117.01%" y2="50%">
<stop stop-color="#FCE38A" offset="0"/>
<stop stop-color="#F38181" offset="1"/>
</linearGradient>
</defs>
<g fill-rule="evenodd">
<g fill="gray">
<path d="M70 0l2.85 5H90V0zM73 18h16v-5H73zM90 28H72.806L70 33h20zM5.795 15.024h9.504c1.854 0 3.259-.443 4.219-1.32.958-.878 1.435-2.195 1.435-3.95 0-1.048-.155-1.903-.463-2.565-.308-.662-.733-1.179-1.273-1.548a4.695 4.695 0 0 0-1.856-.74 12.271 12.271 0 0 0-2.155-.186H5.795v10.309zM0 0h15.808c3.648 0 6.383.786 8.205 2.36 1.825 1.572 2.735 3.758 2.735 6.56 0 1.574-.231 2.877-.695 3.906-.463 1.033-1.003 1.864-1.622 2.498-.618.63-1.227 1.086-1.83 1.362-.604.276-1.043.464-1.323.555v.092c.495.062 1.027.217 1.6.462.572.248 1.104.641 1.599 1.18.494.537.905 1.24 1.23 2.102.325.862.487 1.938.487 3.234 0 1.943.146 3.705.44 5.29.293 1.59.75 2.723 1.366 3.399h-6.21a5.364 5.364 0 0 1-.767-2.355 28.313 28.313 0 0 1-.115-2.498c0-1.507-.093-2.81-.28-3.905-.183-1.093-.525-2.003-1.017-2.725a4.314 4.314 0 0 0-2.018-1.595c-.85-.34-1.94-.51-3.268-.51h-8.53V33H0V0zM32 33h6V0h-6zM49.825 15.624h8.526c.653 0 1.322-.093 2.004-.279a5.715 5.715 0 0 0 1.887-.9c.574-.417 1.04-.97 1.398-1.662.358-.696.538-1.567.538-2.612 0-1.08-.156-1.972-.466-2.682-.312-.71-.732-1.271-1.26-1.686a4.488 4.488 0 0 0-1.818-.855 9.874 9.874 0 0 0-2.19-.233h-8.62v10.909zM44 0h14.677c2.36 0 4.288.34 5.78 1.017 1.49.678 2.638 1.526 3.447 2.545a8.568 8.568 0 0 1 1.654 3.325c.296 1.202.442 2.312.442 3.329 0 1.017-.146 2.12-.442 3.303-.295 1.188-.845 2.288-1.654 3.305-.81 1.02-1.957 1.857-3.448 2.52-1.49.664-3.419.992-5.779.992h-8.852V33H44V0z"/>
</g>
<path d="M228.781 43.015c-1.39-.185-2.304 1.426-1.451 2.552l17.273 22.809c.853 1.126 2.62.644 2.802-.767l2.582-20.154c.11-.874-.493-1.671-1.351-1.786l-19.855-2.654z" fill="#D05B02"/>
<path transform="translate(-1 19)" d="M201.172 1.78v59.377l15.955-16.484a1.495 1.495 0 0 1 2.275.152l9.063 12.279c.44.594.372 1.42-.163 1.935l-2.837 2.751 33.132 49.647c.658.988-.054 2.311-1.247 2.311h-23.858c-.518 0-1-.27-1.274-.708l-22.256-36.003-8.79 8.431v26.792c0 .821-.67 1.488-1.496 1.488h-19.701a1.493 1.493 0 0 1-1.5-1.488V1.78c0-.821.671-1.488 1.5-1.488h19.7c.826 0 1.497.667 1.497 1.488zm-54.697 101.643c-2.673 4.456-6.167 7.668-10.495 9.625-4.314 1.967-9.202 2.951-14.648 2.951-6.193 0-11.644-1.19-16.334-3.585-4.707-2.385-8.577-5.622-11.616-9.703-3.048-4.09-5.341-8.78-6.896-14.09-1.538-5.295-2.316-10.814-2.316-16.552 0-5.516.778-10.842 2.316-15.995 1.555-5.143 3.848-9.675 6.896-13.598 3.039-3.926 6.858-7.084 11.444-9.468 4.59-2.397 9.937-3.588 16.021-3.588 4.916 0 9.584 1.036 14.015 3.108 4.431 2.06 7.936 5.117 10.492 9.144h.327V1.739c0-.796.651-1.446 1.455-1.446h19.832c.804 0 1.458.65 1.458 1.446v110.74c0 .8-.654 1.45-1.458 1.45H148.26c-.807 0-1.458-.65-1.458-1.45v-9.056h-.327zM23.698 92.744c1.001 1.73 2.286 3.149 3.864 4.25 1.575 1.102 3.386 1.907 5.438 2.432 2.05.524 4.18.794 6.39.794 1.577 0 3.232-.196 4.963-.552 1.734-.372 3.312-.945 4.721-1.74a10.714 10.714 0 0 0 3.555-3.136c.947-1.32 1.412-2.967 1.412-4.954 0-3.352-2.234-5.871-6.698-7.547-4.463-1.679-10.689-3.355-18.68-5.031a111.22 111.22 0 0 1-9.53-2.6c-3.108-.997-5.866-2.304-8.289-3.929-2.413-1.622-4.361-3.673-5.824-6.144-1.476-2.455-2.209-5.476-2.209-9.035 0-5.244 1.03-9.534 3.067-12.899C7.93 39.301 10.64 36.652 14 34.72c3.363-1.946 7.145-3.302 11.353-4.096a70.86 70.86 0 0 1 12.933-1.177c4.412 0 8.684.423 12.841 1.256 4.157.845 7.85 2.264 11.11 4.248 3.259 1.997 5.965 4.647 8.12 7.948 1.923 2.947 3.154 6.577 3.698 10.907.104.846-.583 1.595-1.435 1.595H54.212c-.728 0-1.307-.556-1.412-1.274-.521-3.607-2.104-6.098-4.752-7.453-2.937-1.526-6.402-2.29-10.405-2.29-1.257 0-2.615.089-4.094.242-1.473.153-2.806.499-4.014 1.024a8.174 8.174 0 0 0-3.079 2.277c-.845.998-1.256 2.328-1.256 4.007 0 1.997.73 3.62 2.206 4.875 1.46 1.256 3.386 2.277 5.748 3.072 2.374.78 5.066 1.498 8.12 2.124 3.054.627 6.146 1.305 9.3 2.033 3.26.744 6.442 1.64 9.534 2.675 3.105 1.05 5.862 2.445 8.288 4.175a20.172 20.172 0 0 1 5.822 6.45c1.476 2.572 2.206 5.733 2.206 9.508 0 5.35-1.075 9.827-3.23 13.45-2.158 3.609-4.966 6.525-8.429 8.729-3.465 2.2-7.44 3.75-11.906 4.633A69.029 69.029 0 0 1 39.22 115c-4.722 0-9.351-.47-13.868-1.418-4.515-.948-8.544-2.512-12.057-4.71-3.53-2.216-6.417-5.12-8.674-8.73-2.043-3.275-3.246-7.295-3.619-12.066-.064-.822.616-1.538 1.443-1.538h18.38c.768 0 1.363.606 1.43 1.37.155 1.832.638 3.447 1.442 4.837zm121.825-29.986c-.652-3.122-1.746-5.88-3.285-8.277-1.549-2.385-3.56-4.313-6.009-5.803-2.462-1.49-5.554-2.227-9.293-2.227-3.741 0-6.883.737-9.451 2.227-2.556 1.49-4.613 3.447-6.167 5.893-1.55 2.436-2.67 5.22-3.36 8.352-.693 3.122-1.046 6.388-1.046 9.78 0 3.186.382 6.372 1.124 9.559.742 3.173 1.956 6.021 3.609 8.509 1.655 2.5 3.728 4.506 6.244 6.047 2.501 1.544 5.526 2.305 9.047 2.305 3.739 0 6.857-.737 9.371-2.227a16.972 16.972 0 0 0 6.011-5.968c1.484-2.488 2.553-5.326 3.205-8.512.638-3.183.952-6.475.952-9.868 0-3.394-.314-6.655-.952-9.79z" fill="url(#a)"/>
</g>
</svg>
