<svg width="120" height="120" viewBox="0 0 120 120" xmlns="http://www.w3.org/2000/svg"><defs><linearGradient x1="-5.64%" y1="85.894%" x2="105.583%" y2="14.144%" id="a"><stop stop-color="#6051F2" offset="0%"/><stop stop-color="#7D8CF9" offset="100%"/></linearGradient><linearGradient x1="-.002%" y1="49.983%" x2="99.999%" y2="49.983%" id="b"><stop stop-color="#FFF" stop-opacity=".8" offset="0%"/><stop stop-color="#FFF" stop-opacity=".83" offset="24%"/><stop stop-color="#FFF" stop-opacity=".92" offset="61%"/><stop stop-color="#FFF" offset="87%"/></linearGradient></defs><g fill="none"><rect fill="url(#a)" width="119.423" height="119.423" rx="15.09"/><path d="M82.913 31.415L54.86 22.913a9.057 9.057 0 00-8.818 2.06l-21.385 20.05a9.057 9.057 0 00-2.627 8.66l6.668 28.551a9.057 9.057 0 006.193 6.611l28.052 8.513a9.058 9.058 0 008.82-2.049l7.72-7.245-20.615-21.973a2.128 2.128 0 00-3-.102l-8.423 7.924c-.854.8-2.195.76-3-.09l-8.003-8.548a2.106 2.106 0 01.147-3.01L57.555 42.61a2.14 2.14 0 011.517-.577l16.55.543a2.117 2.117 0 011.36 3.657l-6.34 5.955a2.14 2.14 0 00-.102 3l20.58 21.95 2.027-1.901a9.057 9.057 0 002.627-8.672l-6.668-28.54a9.057 9.057 0 00-6.193-6.61z" fill="url(#b)"/></g></svg>